<?xml version="1.0" encoding="UTF-8"?>
<svg version="1.1" xmlns="http://www.w3.org/2000/svg" width="230" height="219">
<path d="M0 0 C75.9 0 151.8 0 230 0 C230 72.27 230 144.54 230 219 C154.1 219 78.2 219 0 219 C0 146.73 0 74.46 0 0 Z " fill="#030303" transform="translate(0,0)"/>
<path d="M0 0 C1.32 1.65 2.64 3.3 4 5 C6.06207869 5.71710148 6.06207869 5.71710148 8.265625 5.6015625 C9.07386719 5.61703125 9.88210938 5.6325 10.71484375 5.6484375 C11.55144531 5.64070313 12.38804688 5.63296875 13.25 5.625 C19.5766298 5.625 25.41610539 5.69066668 31 9 C35.99690532 14.20438928 37.09153611 21.56685894 38.875 28.375 C39.22433467 29.6766373 39.57444273 30.97806727 39.92529297 32.27929688 C42.34888476 41.31683008 44.62648104 50.39073052 46.85546875 59.47802734 C48.59832654 66.54013422 50.55486675 73.51812568 52.60986328 80.49487305 C54.58576652 87.30607012 56.2921057 94.17258084 57.96582031 101.0625 C63.31645602 128.26530995 63.31645602 128.26530995 80 149 C88.07986702 153.03993351 95.90162134 153.15295038 104.73706055 153.17700195 C106.32366486 153.18685875 106.32366486 153.18685875 107.94232178 153.19691467 C111.42378824 153.21654235 114.90521197 153.22828123 118.38671875 153.23828125 C120.17342452 153.24439454 120.17342452 153.24439454 121.99622536 153.25063133 C128.29020639 153.27143816 134.58416591 153.28576813 140.87817383 153.29516602 C147.38515322 153.30627286 153.89179465 153.3407373 160.39865398 153.38033772 C165.40084995 153.40642247 170.40296393 153.41485016 175.40522194 153.41844749 C177.80506509 153.42332754 180.20490424 153.43498154 182.60468102 153.45348549 C185.95377348 153.47772289 189.30197052 153.47694089 192.65112305 153.4699707 C193.64497513 153.48278076 194.63882721 153.49559082 195.66279602 153.50878906 C200.98430303 153.51109097 200.98430303 153.51109097 205.65071106 151.19718933 C207.32361662 148.91475631 207.32361662 148.91475631 206.9375 145.375 C206.3249155 141.74483076 206.3249155 141.74483076 203 140 C200.88182786 139.70105545 200.88182786 139.70105545 198.51704407 139.7484436 C197.59892441 139.74306076 196.68080475 139.73767792 195.73486328 139.73213196 C194.72963623 139.73625595 193.72440918 139.74037994 192.6887207 139.74462891 C191.6282402 139.74100845 190.5677597 139.737388 189.47514343 139.73365784 C187.16869785 139.72675667 184.86223592 139.72425974 182.55578041 139.72560501 C178.9028936 139.72656854 175.25030246 139.71364726 171.59745789 139.69662476 C161.21025916 139.65030671 150.8230894 139.62575396 140.43579102 139.61914062 C134.08446482 139.61412136 127.73344539 139.589846 121.38222313 139.55381393 C118.96339956 139.54402203 116.54453375 139.54168063 114.12569618 139.54698563 C110.73621584 139.55406854 107.34764631 139.53674601 103.95825195 139.51416016 C102.46559311 139.52641884 102.46559311 139.52641884 100.94277954 139.53892517 C94.03254624 139.45721904 88.19887316 138.233493 83.1953125 133.17578125 C82.84210938 132.56089844 82.48890625 131.94601563 82.125 131.3125 C81.75632812 130.71050781 81.38765625 130.10851562 81.0078125 129.48828125 C80.03685889 127.09100431 79.4812035 124.86764362 78.93701172 122.34448242 C78.76048065 121.53162277 78.58394958 120.71876312 78.40206909 119.88127136 C78.26938629 119.26045181 78.13670349 118.63963226 78 118 C78.96852465 117.99365209 78.96852465 117.99365209 79.95661545 117.98717594 C95.66372953 117.88389471 111.37079608 117.77526072 127.07783127 117.66066074 C134.67361673 117.60537043 142.26940689 117.55189532 149.86523438 117.50268555 C156.48534967 117.45979235 163.10543096 117.41350142 169.72549367 117.36312145 C173.231116 117.33656188 176.73673177 117.31170988 180.24239349 117.29092598 C184.15480545 117.26766695 188.06713747 117.2368226 191.97949219 117.20532227 C193.14330414 117.1995668 194.30711609 117.19381134 195.50619507 117.18788147 C196.57187714 117.17809265 197.6375592 117.16830383 198.73553467 117.15821838 C199.66101482 117.15176583 200.58649498 117.14531328 201.54001999 117.1386652 C203.83076659 117.00953942 205.80440385 116.64398883 208 116 C209.85487116 108.67871442 211.68557862 101.35337371 213.42578125 94.00390625 C215.80824416 83.94496423 218.23592993 73.93186434 221.09423828 63.99707031 C224.16904533 53.11240226 226.52445514 42.03290473 229 31 C229.33 31 229.66 31 230 31 C230 87.1 230 143.2 230 201 C154.1 201 78.2 201 0 201 C0 134.67 0 68.34 0 0 Z " fill="#FDFDFD" transform="translate(0,18)"/>
<path d="M0 0 C51.81 0 103.62 0 157 0 C152.15953872 21.78207574 146.51996723 43.38012834 141 65 C100.08 65 59.16 65 17 65 C15.02 57.41 13.04 49.82 11 42 C9.52658914 36.505284 8.04339357 31.01380188 6.546875 25.52539062 C4.24694321 17.04036189 2.13369598 8.53478392 0 0 Z " fill="#FCFCFC" transform="translate(56,55)"/>
<path d="M0 0 C75.9 0 151.8 0 230 0 C230 14.85 230 29.7 230 45 C228.35 43.68 226.7 42.36 225 41 C222.31492671 40.21053391 222.31492671 40.21053391 220 40 C219.85304687 39.46632812 219.70609375 38.93265625 219.5546875 38.3828125 C216.44976863 28.06877167 210.99328191 18.24108709 201.578125 12.53125 C190.64261171 6.83152792 178.86293178 4.92282808 166.75 8.0625 C161.20560262 10.0007095 152.71376188 13.57247623 150 19 C148.88625 18.835 147.7725 18.67 146.625 18.5 C133.47625764 16.89706144 125.1206294 18.910082 114 26 C113.34 26.33 112.68 26.66 112 27 C111.98541748 26.34926514 111.97083496 25.69853027 111.95581055 25.02807617 C111.88135451 22.08061694 111.78468734 19.13429358 111.6875 16.1875 C111.66494141 15.16333984 111.64238281 14.13917969 111.61914062 13.08398438 C111.58369141 12.10107422 111.54824219 11.11816406 111.51171875 10.10546875 C111.48553467 9.19949951 111.45935059 8.29353027 111.43237305 7.36010742 C110.90944716 4.50571752 110.26290836 3.76793331 108 2 C105.82723216 1.55373767 105.82723216 1.55373767 103.39257812 1.62768555 C102.46151245 1.62145676 101.53044678 1.61522797 100.57116699 1.60881042 C99.06640808 1.62262505 99.06640808 1.62262505 97.53125 1.63671875 C96.49939575 1.63622025 95.4675415 1.63572174 94.40441895 1.63520813 C92.22222977 1.63754922 90.04003792 1.64727979 87.85791016 1.66381836 C84.51310135 1.6874076 81.16908956 1.68437981 77.82421875 1.67773438 C75.7057244 1.68331115 73.58723342 1.69042103 71.46875 1.69921875 C70.46557739 1.69830734 69.46240479 1.69739594 68.42883301 1.69645691 C67.49776733 1.70598892 66.56670166 1.71552094 65.60742188 1.7253418 C64.37856262 1.73225288 64.37856262 1.73225288 63.12487793 1.73930359 C60.70042398 1.87525947 60.70042398 1.87525947 58 4 C57.66222851 6.75900757 57.51102021 9.30483257 57.48828125 12.0703125 C57.47033005 12.86654022 57.45237885 13.66276794 57.43388367 14.48312378 C57.37963031 17.0303617 57.34583788 19.57741071 57.3125 22.125 C57.27934007 23.8502868 57.24485166 25.57554861 57.20898438 27.30078125 C57.12389565 31.53371813 57.05715693 35.76659753 57 40 C55.35 40 53.7 40 52 40 C51.70867188 39.01 51.41734375 38.02 51.1171875 37 C47.97554992 26.71709342 44.81467809 18.88527691 35.3203125 13.0078125 C28.5881679 10.08374969 22.05069657 9.63579522 14.8125 9.625 C13.93658203 9.60050781 13.06066406 9.57601563 12.15820312 9.55078125 C11.30806641 9.54691406 10.45792969 9.54304687 9.58203125 9.5390625 C8.82124268 9.53084473 8.0604541 9.52262695 7.27661133 9.51416016 C4.25927438 9.9803591 4.25927438 9.9803591 0 14 C0 9.38 0 4.76 0 0 Z " fill="#FBFBFB" transform="translate(0,0)"/>
<path d="M0 0 C0.67293091 -0.00287018 1.34586182 -0.00574036 2.03918457 -0.00869751 C3.45793502 -0.01073346 4.87671384 -0.00523632 6.29541016 0.00732422 C8.461904 0.02338674 10.62653264 0.00746196 12.79296875 -0.01171875 C14.17448327 -0.00973623 15.55599663 -0.00589237 16.9375 0 C18.81598633 0.00507568 18.81598633 0.00507568 20.73242188 0.01025391 C24.23569018 0.43045582 25.70082688 0.69418721 27.96875 3.3984375 C28.42285156 6.40112305 28.42285156 6.40112305 28.359375 10.03515625 C28.34938477 11.20522217 28.33939453 12.37528809 28.32910156 13.58081055 C28.27447754 15.81084839 28.27447754 15.81084839 28.21875 18.0859375 C28.13625 22.8090625 28.05375 27.5321875 27.96875 32.3984375 C15.09875 32.3984375 2.22875 32.3984375 -11.03125 32.3984375 C-11.11375 27.6753125 -11.19625 22.9521875 -11.28125 18.0859375 C-11.31766602 16.59924561 -11.35408203 15.11255371 -11.39160156 13.58081055 C-11.40658691 11.82571167 -11.40658691 11.82571167 -11.421875 10.03515625 C-11.44282227 8.83592529 -11.46376953 7.63669434 -11.48535156 6.40112305 C-11.03125 3.3984375 -11.03125 3.3984375 -9.44628906 1.50854492 C-6.18873916 0.01116528 -3.58268167 0.00968043 0 0 Z " fill="#FBFBFB" transform="translate(76.03125,7.6015625)"/>
<path d="M0 0 C4.75582794 2.71625444 7.66973391 6.56531922 9.8125 11.5625 C11.0017834 17.48147201 10.06090918 22.58153333 7.08984375 27.8046875 C4.36496918 31.55451489 1.25421395 34.08192868 -3.1875 35.5625 C-9.84815319 36.31572411 -15.00746026 36.05428591 -20.53125 32.05859375 C-25.58052779 27.49757159 -27.01769158 23.19453046 -27.4375 16.6875 C-27.32527607 11.62807124 -25.92942235 8.31893837 -22.3125 4.671875 C-15.60407539 -1.39530314 -8.73444972 -3.69534411 0 0 Z " fill="#020202" transform="translate(104.1875,182.4375)"/>
<path d="M0 0 C4.75582794 2.71625444 7.66973391 6.56531922 9.8125 11.5625 C11.0017834 17.48147201 10.06090918 22.58153333 7.08984375 27.8046875 C4.36496918 31.55451489 1.25421395 34.08192868 -3.1875 35.5625 C-9.84815319 36.31572411 -15.00746026 36.05428591 -20.53125 32.05859375 C-25.34137818 27.71359589 -26.96801409 23.47068829 -27.4375 17.25 C-26.98478537 10.57245927 -25.05491888 7.07175598 -20.1875 2.6875 C-14.26840587 -2.31234088 -7.15467715 -3.0269788 0 0 Z " fill="#020202" transform="translate(186.1875,182.4375)"/>
<path d="M0 0 C34.98 0 69.96 0 106 0 C106 0.33 106 0.66 106 1 C105.44289841 1.00808685 104.88579681 1.01617371 104.31181335 1.02450562 C98.52054773 1.11047268 92.7296275 1.20997261 86.9387207 1.31738281 C84.77667027 1.35569804 82.61455553 1.3905464 80.45239258 1.421875 C77.34693396 1.46747017 74.24191901 1.52547384 71.13671875 1.5859375 C70.16788254 1.59748871 69.19904633 1.60903992 68.20085144 1.62094116 C66.84979057 1.6507457 66.84979057 1.6507457 65.47143555 1.68115234 C64.28229805 1.70113785 64.28229805 1.70113785 63.06913757 1.7215271 C60.69396892 1.88713582 60.69396892 1.88713582 58 4 C57.66222851 6.75900757 57.51102021 9.30483257 57.48828125 12.0703125 C57.47033005 12.86654022 57.45237885 13.66276794 57.43388367 14.48312378 C57.37963031 17.0303617 57.34583788 19.57741071 57.3125 22.125 C57.27934007 23.8502868 57.24485166 25.57554861 57.20898438 27.30078125 C57.12389565 31.53371813 57.05715693 35.76659753 57 40 C55.35 40 53.7 40 52 40 C51.70867188 39.01 51.41734375 38.02 51.1171875 37 C47.97554992 26.71709342 44.81467809 18.88527691 35.3203125 13.0078125 C28.5881679 10.08374969 22.05069657 9.63579522 14.8125 9.625 C13.93658203 9.60050781 13.06066406 9.57601563 12.15820312 9.55078125 C11.30806641 9.54691406 10.45792969 9.54304687 9.58203125 9.5390625 C8.82124268 9.53084473 8.0604541 9.52262695 7.27661133 9.51416016 C4.25927438 9.9803591 4.25927438 9.9803591 0 14 C0 9.38 0 4.76 0 0 Z " fill="#F5F5F5" transform="translate(0,0)"/>
<path d="M0 0 C4.08218424 4.26773807 8.75 9.76045245 8.75 15.875 C3.60923718 16.14814003 -1.5272646 16.3470199 -6.67358398 16.47924805 C-8.42107717 16.53437758 -10.16806709 16.60931329 -11.91381836 16.70483398 C-26.45209898 17.48004313 -26.45209898 17.48004313 -30.89013672 13.51806641 C-32.67246969 10.69850099 -33.96664318 7.94667195 -35.25 4.875 C-36.20841375 3.51146751 -37.19508395 2.16532163 -38.25 0.875 C-36.67065361 -0.11058449 -35.08634827 -1.08822541 -33.5 -2.0625 C-32.61828125 -2.60777344 -31.7365625 -3.15304688 -30.828125 -3.71484375 C-20.6320719 -9.29177582 -9.16571669 -5.99296861 0 0 Z " fill="#FAFAFA" transform="translate(198.25,24.125)"/>
<path d="M0 0 C1.63134766 1.07421875 1.63134766 1.07421875 3 3 C3.38818359 6.23046875 3.38818359 6.23046875 3.3984375 10.1875 C3.40274277 11.23587036 3.40274277 11.23587036 3.40713501 12.30541992 C3.40917425 13.78142101 3.40365403 15.25744921 3.39111328 16.73339844 C3.3750558 18.99215138 3.3909647 21.24911518 3.41015625 23.5078125 C3.40817379 24.94271228 3.40433006 26.37761095 3.3984375 27.8125 C3.39505371 29.11832031 3.39166992 30.42414063 3.38818359 31.76953125 C3 35 3 35 1.63134766 36.92578125 C-0.71982945 38.47399725 -2.24633656 38.41304952 -5 38 C-6.63134766 36.92578125 -6.63134766 36.92578125 -8 35 C-8.38818359 31.76953125 -8.38818359 31.76953125 -8.3984375 27.8125 C-8.40130768 27.11358643 -8.40417786 26.41467285 -8.40713501 25.69458008 C-8.40917425 24.21857899 -8.40365403 22.74255079 -8.39111328 21.26660156 C-8.3750558 19.00784862 -8.3909647 16.75088482 -8.41015625 14.4921875 C-8.40817379 13.05728772 -8.40433006 11.62238905 -8.3984375 10.1875 C-8.39505371 8.88167969 -8.39166992 7.57585937 -8.38818359 6.23046875 C-8 3 -8 3 -6.63134766 1.07421875 C-4.28017055 -0.47399725 -2.75366344 -0.41304952 0 0 Z " fill="#0D0D0D" transform="translate(134,67)"/>
<path d="M0 0 C2.48850674 2.48850674 2.2461233 3.9621006 2.27789307 7.35913086 C2.2738446 8.08624268 2.26979614 8.81335449 2.265625 9.5625 C2.26753845 10.30959229 2.2694519 11.05668457 2.27142334 11.82641602 C2.27278498 13.40674171 2.26909 14.98707858 2.26074219 16.56738281 C2.250042 18.99048922 2.26063779 21.41285423 2.2734375 23.8359375 C2.2721159 25.36979331 2.2695535 26.90364865 2.265625 28.4375 C2.26967346 29.16461182 2.27372192 29.89172363 2.27789307 30.64086914 C2.22992361 35.77007639 2.22992361 35.77007639 0 38 C-3.5625 37.75 -3.5625 37.75 -7 37 C-8.49450198 34.01099603 -8.18336418 30.93542181 -8.203125 27.65625 C-8.20882507 26.93135376 -8.21452515 26.20645752 -8.22039795 25.45959473 C-8.22984603 23.92636576 -8.23638117 22.39311651 -8.24023438 20.85986328 C-8.24996241 18.50908323 -8.2809949 16.15916935 -8.3125 13.80859375 C-8.31902788 12.3203177 -8.32427919 10.83203539 -8.328125 9.34375 C-8.3404718 8.63851196 -8.3528186 7.93327393 -8.36553955 7.20666504 C-8.35644531 5.22460938 -8.35644531 5.22460938 -8 2 C-4.77626323 -0.14915785 -3.73296326 -0.38286803 0 0 Z " fill="#020202" transform="translate(166,67)"/>
<path d="M0 0 C6.57692308 0.57692308 6.57692308 0.57692308 8 2 C8.12562812 4.41320199 8.18861547 6.79627041 8.203125 9.2109375 C8.20882507 9.93487701 8.21452515 10.65881653 8.22039795 11.4046936 C8.2298612 12.93970268 8.23638717 14.4747322 8.24023438 16.00976562 C8.2499316 18.35843425 8.28093729 20.70622481 8.3125 23.0546875 C8.31903069 24.54426562 8.3242809 26.03385002 8.328125 27.5234375 C8.3404718 28.22665131 8.3528186 28.92986511 8.36553955 29.65438843 C8.3522618 32.56217227 8.33311306 34.5230481 6.63964844 36.94775391 C4.31792019 38.43772543 2.69907221 38.3460349 0 38 C-2.48850674 35.51149326 -2.2461233 34.0378994 -2.27789307 30.64086914 C-2.2738446 29.91375732 -2.26979614 29.18664551 -2.265625 28.4375 C-2.26753845 27.69040771 -2.2694519 26.94331543 -2.27142334 26.17358398 C-2.27278498 24.59325829 -2.26909 23.01292142 -2.26074219 21.43261719 C-2.250042 19.00951078 -2.26063779 16.58714577 -2.2734375 14.1640625 C-2.2721159 12.63020669 -2.2695535 11.09635135 -2.265625 9.5625 C-2.26967346 8.83538818 -2.27372192 8.10827637 -2.27789307 7.35913086 C-2.22992361 2.22992361 -2.22992361 2.22992361 0 0 Z " fill="#020202" transform="translate(97,67)"/>
</svg>
